HIERARCHY
ROOT boneTorso
{
	OFFSET 0.000000 -0.000000 0.798061
	CHANNELS 6 Xposition Yposition Zposition Xrotation Yrotation Zrotation
	JOINT boneHead
	{
		OFFSET 0.000000 0.000000 0.675000
		CHANNELS 3 Xrotation Yrotation Zrotation
		End Site
		{
			OFFSET 0.000000 -0.000000 0.500000
		}
	}
	JOINT boneLegRU
	{
		OFFSET 0.000000 0.125000 0.000000
		CHANNELS 6 Xposition Yposition Zposition Xrotation Yrotation Zrotation
		JOINT boneLegRD
		{
			OFFSET 0.000000 0.000000 -0.375000
			CHANNELS 3 Xrotation Yrotation Zrotation
			JOINT boneFootR
			{
				OFFSET 0.000000 0.000000 -0.375000
				CHANNELS 3 Xrotation Yrotation Zrotation
				End Site
				{
					OFFSET 0.000000 0.000000 -0.075000
				}
			}
		}
	}
	JOINT boneLegLU
	{
		OFFSET 0.000000 -0.125000 0.000000
		CHANNELS 6 Xposition Yposition Zposition Xrotation Yrotation Zrotation
		JOINT boneLegLD
		{
			OFFSET 0.000000 0.000000 -0.375000
			CHANNELS 3 Xrotation Yrotation Zrotation
			JOINT boneFootL
			{
				OFFSET 0.000000 0.000000 -0.375000
				CHANNELS 3 Xrotation Yrotation Zrotation
				End Site
				{
					OFFSET 0.000000 0.000000 -0.075000
				}
			}
		}
	}
	JOINT boneArmRU
	{
		OFFSET 0.000000 0.350000 0.675000
		CHANNELS 6 Xposition Yposition Zposition Xrotation Yrotation Zrotation
		JOINT boneArmRD
		{
			OFFSET 0.000000 0.000000 -0.375000
			CHANNELS 3 Xrotation Yrotation Zrotation
			End Site
			{
				OFFSET 0.000000 0.000000 -0.300000
			}
		}
	}
	JOINT boneArmLU
	{
		OFFSET 0.000000 -0.350000 0.675000
		CHANNELS 6 Xposition Yposition Zposition Xrotation Yrotation Zrotation
		JOINT boneArmLD
		{
			OFFSET 0.000000 0.000000 -0.375000
			CHANNELS 3 Xrotation Yrotation Zrotation
			End Site
			{
				OFFSET 0.000000 0.000000 -0.300000
			}
		}
		JOINT boneItemInHand
		{
			OFFSET 0.000000 0.000000 -0.673061
			CHANNELS 6 Xposition Yposition Zposition Xrotation Yrotation Zrotation
			End Site
			{
				OFFSET 0.000000 0.000000 -0.140000
			}
		}
	}
}
MOTION
Frames: 9
Frame Time: 0.100000
0.000000 -0.000000 0.798061 0.000000 0.000000 -0.000000 -0.000000 0.000000 -0.000000 -0.000000 0.125000 0.000000 -0.000001 -26.871202 -0.000004 -0.000000 11.512360 0.000002 -0.000000 -0.000000 -0.000000 -0.000000 -0.125000 0.000000 -0.000001 20.219634 0.000003 -0.000001 21.084961 0.000003 -0.000000 14.109899 0.000002 -0.000000 0.350000 0.675000 -0.000001 27.948634 0.000004 0.000000 0.000000 0.000000 -0.000000 -0.350000 0.675000 -0.000006 -56.038178 -0.000012 0.000000 -0.000000 0.000000 0.000000 -0.000000 -0.673061 -0.000006 56.038178 0.000012 
0.000000 -0.000000 0.725160 0.000000 0.000000 -0.000000 -0.000000 0.000000 -0.000000 -0.000000 0.125000 0.000000 -0.000002 -38.399494 -0.000006 -0.000002 37.781359 0.000006 -0.000000 -7.725587 -0.000000 0.000000 -0.125000 0.000000 -0.000000 10.038048 0.000001 -0.000017 71.774865 0.000025 -0.000000 -0.883395 -0.000000 -0.000000 0.350000 0.675000 -0.000001 27.948634 0.000004 0.000000 0.000000 0.000000 -0.000000 -0.350000 0.675000 -0.000006 -56.038178 -0.000012 0.000000 -0.000000 0.000000 0.000000 0.000000 -0.673061 -0.000006 56.038178 0.000012 
0.000000 -0.000000 0.768901 0.000000 0.000000 -0.000000 -0.000000 0.000000 -0.000000 0.000000 0.125000 0.000000 -0.000001 7.463477 0.000001 0.000000 7.980822 0.000001 -0.000000 -15.451177 -0.000002 -0.000000 -0.125000 0.000000 -0.000003 -39.751875 -0.000007 0.000045 102.002564 -0.000040 -0.000000 4.581660 0.000001 -0.000000 0.350000 0.675000 -0.000001 27.948634 0.000004 0.000000 0.000000 0.000000 -0.000000 -0.350000 0.675000 -0.000006 -56.038178 -0.000012 0.000000 -0.000000 0.000000 0.000000 -0.000000 -0.673061 -0.000006 56.038178 0.000012 
0.000000 -0.000000 0.822362 0.000000 0.000000 -0.000000 -0.000000 0.000000 -0.000000 0.000000 0.125000 0.000000 -0.000001 17.422752 0.000002 0.000000 -0.029540 -0.000000 -0.000000 -1.104322 -0.000000 -0.000000 -0.125000 0.000000 -0.000011 -65.658322 -0.000018 0.000037 105.219262 -0.000031 -0.000000 3.228827 0.000001 -0.000000 0.350000 0.675000 -0.000001 27.948634 0.000004 0.000000 0.000000 0.000000 -0.000000 -0.350000 0.675000 -0.000006 -56.038178 -0.000012 0.000000 -0.000000 0.000000 0.000000 -0.000000 -0.673061 -0.000006 56.038178 0.000012 
0.000000 -0.000000 0.793201 0.000000 0.000000 -0.000000 -0.000000 0.000000 -0.000000 -0.000000 0.125000 0.000000 -0.000001 20.242331 0.000003 -0.000001 21.108203 0.000003 -0.000000 -0.000001 0.000000 -0.000000 -0.125000 0.000000 -0.000001 -30.257724 -0.000005 -0.000000 11.403181 0.000002 -0.000000 0.826069 -0.000000 -0.000000 0.350000 0.675000 -0.000001 27.948634 0.000004 0.000000 0.000000 0.000000 -0.000000 -0.350000 0.675000 -0.000006 -56.038178 -0.000012 0.000000 -0.000000 0.000000 0.000000 -0.000000 -0.673061 -0.000006 56.038178 0.000012 
0.000000 -0.000000 0.725160 0.000000 0.000000 -0.000000 -0.000000 0.000000 -0.000000 -0.000000 0.125000 0.000000 -0.000000 10.006605 0.000001 -0.000017 71.828086 0.000025 0.000000 0.082967 0.000001 -0.000000 -0.125000 0.000000 -0.000002 -38.289064 -0.000006 -0.000002 37.315775 0.000006 -0.000000 -0.883395 -0.000000 -0.000000 0.350000 0.675000 -0.000001 27.948634 0.000004 0.000000 0.000000 0.000000 -0.000000 -0.350000 0.675000 -0.000006 -56.038178 -0.000012 0.000000 -0.000000 0.000000 0.000000 0.000000 -0.673061 -0.000006 56.038178 0.000012 
0.000000 -0.000000 0.768901 0.000000 0.000000 -0.000000 -0.000000 0.000000 -0.000000 -0.000000 0.125000 0.000000 -0.000003 -39.840138 -0.000008 0.000051 101.803690 -0.000045 -0.000000 4.916221 0.000001 0.000000 -0.125000 0.000000 -0.000000 6.759334 0.000001 -0.000000 8.796064 0.000000 0.000000 -11.822967 -0.000002 -0.000000 0.350000 0.675000 -0.000001 27.948634 0.000004 0.000000 0.000000 0.000000 -0.000000 -0.350000 0.675000 -0.000006 -56.038178 -0.000012 0.000000 -0.000000 0.000000 0.000000 -0.000000 -0.673061 -0.000006 56.038178 0.000012 
0.000000 -0.000000 0.822362 0.000000 0.000000 -0.000000 -0.000000 0.000000 -0.000000 -0.000000 0.125000 0.000000 -0.000013 -65.653650 -0.000021 0.000043 105.162039 -0.000036 -0.000000 2.842754 0.000000 0.000000 -0.125000 0.000000 -0.000001 17.404796 0.000003 -0.000000 -0.066233 -0.000002 -0.000000 3.228829 0.000001 -0.000000 0.350000 0.675000 -0.000001 27.948634 0.000004 0.000000 0.000000 0.000000 -0.000000 -0.350000 0.675000 -0.000006 -56.038178 -0.000012 0.000000 -0.000000 0.000000 0.000000 -0.000000 -0.673061 -0.000006 56.038178 0.000012 
0.000000 -0.000000 0.798061 0.000000 0.000000 -0.000000 -0.000000 0.000000 -0.000000 -0.000000 0.125000 0.000000 -0.000001 -26.871200 -0.000004 -0.000000 11.512359 0.000002 0.000000 0.000001 0.000000 0.000000 -0.125000 0.000000 -0.000001 20.219633 0.000003 -0.000001 21.084960 0.000003 -0.000000 14.109895 0.000002 -0.000000 0.350000 0.675000 -0.000001 27.948634 0.000004 0.000000 0.000000 0.000000 -0.000000 -0.350000 0.675000 -0.000006 -56.038178 -0.000012 0.000000 -0.000000 0.000000 0.000000 -0.000000 -0.673061 -0.000006 56.038178 0.000012 
